<?xml version="1.0" encoding="UTF-8"?>
<svg id="Favicon" xmlns="http://www.w3.org/2000/svg" viewBox="0 0 96 96">
  <defs>
    <style>
      .cls-1 {
      fill: #ffb5a0;
      }

      .cls-2 {
      fill: #ff5722;
      }

      .cls-3 {
      fill: none;
      }

      .cls-4 {
      fill: #2c1c17;
      }
    </style>
  </defs>
  <path id="Background" class="cls-4"
    d="m28.8026.0065h38.3948c15.898327,0,28.7961,12.897773,28.7961,28.7961v38.3948c0,15.898327-12.898734,28.7961-28.7961,28.7961H28.8026C12.904273,95.9935.0065,83.094766.0065,67.1974V28.8026C.0065,12.904273,12.904273.0065,28.8026.0065Z" />
  <g id="Pattern">
    <path class="cls-3"
      d="m43.524475,78.31781c-3.040344.022034-6.337952.350403-8.800354,2.316467-.292175.234131-.562744.487122-.812927.756104.249634-.26825.519592-.52063.811035-.754211,2.462402-1.966064,5.76001-2.294373,8.800293-2.316467,6.50592-.190063,12.960022,1.226868,19.466919.746887,2.313354-.249023,4.621765-1.303894,6.267883-2.969604-1.645996,1.664612-3.953491,2.71875-6.265991,2.967712-6.506897.47998-12.961914-.937927-19.466858-.746887Z" />
    <path class="cls-3"
      d="m58.794006,22.469482c.828003-.750488,1.786987-1.358521,2.822632-1.779541l.00061-.001282c-1.036011.421326-1.995178,1.029724-2.823242,1.780823Z" />
    <path class="cls-3"
      d="m34.846985,25.136658c2.462402,4.994873,5.342407,9.809265,7.219238,15.073914.670227,1.959595,1.205933,4.014038,1.22345,6.093811-.017273-2.080139-.553101-4.134888-1.22345-6.094727-1.876831-5.263733-4.756836-10.078125-7.219238-15.073975-2.354858-4.742371-4.438049-9.741089-4.989075-15.054688-.014954-.292664-.024902-.586914-.036072-.880859.011169.29425.021118.588867.036072.881836.550049,5.313599,2.63324,10.312317,4.989075,15.054688Z" />
    <path class="cls-3"
      d="m48.76123,24.954285c.156494,2.803162,1.217285,5.441284,2.239685,8.020813,2.889587,7.091492,7.730896,13.142395,11.027527,20.025574,1.490906,3.054688,2.766724,6.297607,2.995239,9.721924.07135,1.59967.016296,3.271179-.572327,4.775818.589539-1.504822.644653-3.178162.573242-4.778687-.228455-3.424316-1.504272-6.667236-2.995178-9.721924-3.295715-6.88324-8.137939-12.934082-11.027527-20.025635-1.0224-2.579529-2.083191-5.21759-2.239685-8.020752-.10675-1.779541.310791-3.569946,1.142456-5.141541-.832764,1.572266-1.250854,3.363953-1.143433,5.144409Z" />
    <path class="cls-3"
      d="m29.801086,7.416992c.000244-.009399-.000366-.018921-.000061-.02832-.000244.00946.000366.01886.000061.02832Z" />
    <path class="cls-3"
      d="m51.827515,17.266724v.000854c2.11499-2.097412,5.063477-3.269531,8.03125-3.315735-2.967651.045959-5.916077,1.217834-8.03125,3.31488Z" />
    <path class="cls-3"
      d="m96,32.092834c-4.45636-2.262756-8.913635-4.550415-13.585938-6.343689,4.672302,1.793274,9.129578,4.081909,13.585938,6.343689Z" />
    <path class="cls-3"
      d="m61.159668,40.302734c2.294373,5.488342,5.651489,10.428467,8.555481,15.597107,2.347229,4.156799,4.440002,8.532532,5.406738,13.235535.478088,2.52478.487671,5.219543-.467529,7.638733-.477417,1.221191-1.251587,2.308044-2.218262,3.186035.967102-.878174,1.741638-1.965393,2.219238-3.187012.9552-2.419189.945618-5.113892.467529-7.638733-.966736-4.702026-3.059509-9.078674-5.406738-13.235474-2.903992-5.167725-6.261108-10.108826-8.555542-15.597168-1.380432-3.414673-2.316467-7.293091-1.149109-10.907471.253723-.907043.680603-1.745544,1.234985-2.491638-.55481.746338-.982056,1.585205-1.235901,2.492554-1.168335,3.614441-.232361,7.492798,1.149109,10.907532Z" />
    <path class="cls-3"
      d="m50.399963,4.891235c3.189148-.115234,6.31488.702698,9.33313,1.649292-3.017273-.94751-6.143982-1.764526-9.33313-1.649292Z" />
    <path class="cls-3"
      d="m40.763489,25.133789c3.184326,7.729919,8.363525,14.42688,11.690918,22.084778,1.393921,3.26593,2.339478,6.931213,1.50238,10.468811-.838074,3.153625-3.617249,5.513306-6.68158,6.409912-1.781494.509705-3.608337.65564-5.44397.640808,1.836182.014954,3.663452-.130981,5.444885-.640747,3.064331-.895691,5.843506-3.256348,6.681641-6.409973.837097-3.537598-.108521-7.202881-1.502441-10.46875-3.328308-7.657959-8.507507-14.354919-11.690857-22.084839-1.078125-2.657288-1.985291-5.445129-2.080322-8.332764-.076782-3.132507,1.145264-6.288025,3.40509-8.474915h-.000916c-2.258911,2.18689-3.481934,5.342407-3.405151,8.474854.094116,2.887695,1.001282,5.675537,2.080322,8.332825Z" />
    <path class="cls-3"
      d="m34.708191,64.323242c-1.052002-.062378-2.10376-.130432-3.155151-.205444,1.051331.074951,2.103088.143066,3.155151.205444Z" />
    <path class="cls-3"
      d="m30.101501,64.023682c-1.453247-.094299-2.907532-.158508-4.364014-.159363,1.456299.000854,2.910583.065063,4.364014.159363Z" />
    <path class="cls-3"
      d="m56.830994,68.684204c-2.55072,1.353577-5.513245,1.591675-8.350037,1.633911-5.028503.035522-10.009949-.91394-15.040344-.827515-2.18689-.016296-4.427551.089294-6.494385.866882-2.112.772827-4.081909,2.198425-5.107239,4.243225-.000183.000305-.000244.000732-.000427.001038,1.025513-2.04425,2.994995-3.469666,5.106689-4.242371,2.066895-.777588,4.307556-.883179,6.494385-.866882,5.030396-.086365,10.010925.862061,15.040344.827515,2.836792-.04126,5.800293-.280273,8.350098-1.633911,1.984375-1.053101,3.395264-2.936951,4.061279-5.0578-.666504,2.119995-2.077209,4.003113-4.060364,5.055908Z" />
    <path class="cls-3"
      d="m13.036804,15.361938c.030701,2.398071-.405151,4.852783-1.567688,6.972473,1.163513-2.11969,1.598389-4.574402,1.567688-6.972473Z" />
    <path class="cls-3"
      d="m43.183289,47.785461c-.131775.944397-.383179,1.884094-.780029,2.761536.397034-.877441.648315-1.817139.780029-2.761536Z" />
    <path class="cls-3"
      d="m46.281982,16.929016c1.198547-2.4505,3.336243-4.450562,5.904541-5.395569l.000977-.001892c-2.56897.94519-4.707214,2.946045-5.905518,5.397461Z" />
    <path class="cls-3"
      d="m3.340759,64.003235c.510742,6.312012,2.849304,12.329285,3.201599,18.664307.035522.41626.05658.836853.056641,1.257568,0-.421082-.021118-.842041-.056641-1.258545-.352295-6.334045-2.690857-12.352295-3.201599-18.664307-.023376-.336975-.034119-.678772-.030762-1.0224-.003357.343994.007324.686035.030762,1.023376Z" />
    <path class="cls-3"
      d="m39.317688,64.634521c-.080627-.005188-.161438-.008423-.242065-.013916.080627.005493.161377.008667.242065.013916Z" />
    <path class="cls-3"
      d="m52.1875,11.531555c3.427185-1.275146,7.135071-.809021,10.63446.002686-3.49939-.811951-7.207275-1.278687-10.63446-.002686Z" />
    <path class="cls-3"
      d="m41.072571,64.717102c-.206726-.006226-.413208-.007874-.619934-.017151.206726.009338.413269.010925.619934.017151Z" />
    <path class="cls-3"
      d="m71.480469,8.964966c-4.314453-1.725098-8.569031-3.618225-12.967102-5.101074,4.398071,1.483093,8.652588,3.376221,12.967102,5.101074Z" />
    <path class="cls-3"
      d="m83.347839,44.855408c.034607-.037537.074524-.069458.109863-.106201-.035339.036804-.075256.068665-.109863.106201Z" />
    <path class="cls-3"
      d="m74.578552,33.612488l.000916-.002869c-1.566528.953979-2.758728,2.421265-3.474365,4.09729.715698-1.67511,1.907532-3.141357,3.47345-4.094421Z" />
    <path class="cls-3"
      d="m79.598389,69.325439c-2.383728-6.54718-6.153625-12.44928-9.309143-18.630676-2.052368-3.854248-3.948181-8.008057-3.935913-12.463013,0,.000122-.000061.000183-.000061.000305-.012512,4.456299,1.883484,8.609253,3.935974,12.463623,3.155518,6.180481,6.9245,12.083557,9.309143,18.630737,1.174011,3.265747,1.948669,6.709961,1.95166,10.194519v-.000244c-.002869-3.484802-.777588-6.929321-1.95166-10.195251Z" />
    <path class="cls-3"
      d="m79.515503,85.329224c1.222717-1.580872,1.9328-3.5625,2.01416-5.554749-.081726,1.992188-.79187,3.973816-2.01416,5.554749Z" />
    <path class="cls-3"
      d="m27.515137,27.591797c.039795.132202.082092.262817.12085.395447-.038818-.132629-.081055-.263245-.12085-.395447Z" />
    <path class="cls-3"
      d="m91.821106,58.822083c.528015-2.255981,2.128296-4.185547,4.178894-5.231995-2.051575,1.046448-3.650879,2.976013-4.178894,5.231995Z" />
    <path class="cls-3"
      d="m83.966492,44.257446c.007446-.006409.015808-.011597.023254-.018005-.007446.006409-.015869.011536-.023254.018005Z" />
    <path class="cls-3"
      d="m84.647034,43.731384c.005066-.00354.01062-.006226.015747-.009766-.005066.003479-.010681.006226-.015747.009766Z" />
    <path class="cls-3"
      d="m74.926392,28.982727c-1.062622.171143-2.09729.486389-3.067505.990417h0c.970215-.504028,2.004944-.819275,3.067505-.990417Z" />
    <path class="cls-3"
      d="m8.892456,17.666931c-.817932,1.927673-2.407654,3.574036-4.414062,4.247986,2.006409-.67395,3.597107-2.320312,4.414062-4.247986Z" />
    <path class="cls-3"
      d="m19.759155,3.283203c.104309.660034.230469,1.315063.366455,1.967773-.135986-.65271-.262146-1.307678-.366455-1.967773Z" />
    <path class="cls-2"
      d="m8.892456,17.666931c.142212-.32196.268616-.64856.38092-.979126.786011-2.313782.879395-4.818848.844971-7.248108-.010498-.822021-.045227-1.643005-.095276-2.463257C5.474609,10.893982,2.165894,16.205261.758179,22.248901c1.247803.140869,2.523438.049011,3.720215-.333984,2.006409-.67395,3.59613-2.320312,4.414062-4.247986Z" />
    <path class="cls-2"
      d="m9.687378,33.553833c1.302856-.004333,2.600098-.21698,3.800598-.741943,2.212769-.916809,4.060791-2.798401,4.708801-5.133118.935974-2.977966.595215-6.160339.022095-9.172852-.987976-4.993896-2.302612-9.916138-3.386597-14.889526-.945374.525635-1.855957,1.10498-2.732178,1.730164.549255,3.316467,1.006592,6.646362.936707,10.015381.030701,2.398071-.404175,4.852783-1.567688,6.972473-.113037.205811-.23468.40802-.364624.605408-.909363,1.381714-2.222961,2.527466-3.818115,3.020508-2.326721.710693-4.799438.501099-7.145508-.000427-.091614.93457-.140869,1.881592-.140869,2.840149v2.699524c2.420105.729553,4.855652,1.459167,7.356445,1.859497.76593.124878,1.549438.197327,2.330933.194763Z" />
    <path class="cls-2"
      d="m22.009888,43.101135c3.115234-.722839,5.815674-3.26593,6.443542-6.443481.596069-2.919312.010315-5.842346-.817444-8.67041-.038757-.132629-.081055-.263245-.12085-.395447-.243164-.807861-.499695-1.609314-.753235-2.398499-2.167908-6.633423-5.210571-13.098267-6.636292-19.942322-.135986-.65271-.262146-1.307739-.366455-1.967773-.091553-.579224-.16748-1.162048-.231506-1.74762-1.011169.343994-1.99823.739624-2.955383,1.189514.727234,3.615479,1.629272,7.194519,2.667053,10.733154,1.118408,3.950439,2.566101,7.856628,2.906921,11.977966.071045,1.658875.093079,3.350342-.338928,4.967957-.628784,2.383667-2.221436,4.551392-4.437073,5.681274-1.521606.752686-3.237122.976318-4.912354,1.053162-4.286377.040283-8.451843-1.16449-12.457886-2.575684v5.967529c4.036499.549194,7.960571,1.696167,11.987488,2.297119,3.300476.526062,6.720032,1.073242,10.0224.27356Z" />
    <path class="cls-2"
      d="m27.257263,10.581177c-.683655-3.48053-.811096-7.198547.488342-10.554504-2.026245.07312-3.999268.352966-5.897949.824158.121216,4.244324,1.242798,8.398376,2.558411,12.41449,2.401917,7.127991,6.329285,13.73468,7.77887,21.177612.172852.833496.26355,1.695068.264709,2.558044.003784,2.587952-.798828,5.188721-2.611938,7.080322-2.0448,2.184998-5.2099,2.750427-8.078369,2.753296-5.689941.143066-11.23584-1.320007-16.797119-2.302063-1.636475-.259155-3.30365-.500916-4.962219-.326477v12.026489c.743347-2.091919,2.299072-4.04718,4.512939-4.653625,4.027222-1.161621,8.224304-.275513,12.278381.228455,4.932495.544312,9.914917,1.382446,14.880005.729614,4.458252-.599976,8.088013-4.984314,7.657898-9.496338-.474182-5.668762-3.239014-10.751038-5.58429-15.817871-.112122-.250671-.228821-.500366-.342651-.750671-1.42804-3.138489-2.968628-6.25354-4.213623-9.471069-.807007-2.085022-1.488525-4.21344-1.931396-6.419861Z" />
    <path class="cls-2"
      d="m10.2854,70.084839c-.040283-1.468811.036499-2.973145.566406-4.358398.504028-1.341125,1.516846-2.419189,2.627563-3.288025,2.308777-1.658875,5.260803-2.01886,8.028442-1.953613,6.881287.430115,13.788513,1.636841,20.687988.775696,3.636536-.559692,7.147217-3.21405,7.927734-6.931213.420471-2.462402-.062439-4.987183-.744019-7.360291-1.550415-5.028503-4.353577-9.529907-6.936035-14.0755-2.737915-4.785645-5.377869-9.726746-6.669067-15.127686-1.092529-4.025269-.238098-8.537292,2.316467-11.843567v.000977c1.934387-2.59198,5.134033-3.972473,8.291504-4.271973,2.502686-.305298,4.994873.247681,7.416016.820801,1.596008.394409,3.164001.868835,4.714966,1.391846,4.398071,1.482849,8.652649,3.375977,12.967102,5.101074,2.782166,1.112244,5.589539,2.153992,8.477905,2.965942,3.179504.923523,6.465576,1.766418,9.806396,1.550415.556885-.047302,1.117126-.120483,1.67218-.224731-1.588318-2.470703-3.539551-4.68512-5.785217-6.56189-3.867737.885132-7.915466.394775-11.711609-.611145-5.648621-1.533142-11.070679-3.772827-16.437134-6.083557h-25.096313c-1.051208,1.406433-1.937256,2.982727-2.289612,4.718445-.203003.878357-.290588,1.7724-.31604,2.670227-.000305.009399.000305.018921.000061.02832-.01593.594177-.00177,1.189087.020752,1.783142.011169.293945.021118.588196.036072.880859.551025,5.313599,2.634216,10.312317,4.989075,15.054688,2.462402,4.99585,5.342407,9.810242,7.219238,15.073975.670349,1.959839,1.206177,4.014587,1.22345,6.094727.002502.297241-.005554.594971-.025391.893066-.015625.196106-.053589.391846-.080994.588013-.131714.944397-.382996,1.884094-.780029,2.761536-.799133,1.766663-2.121826,3.283386-3.913025,4.090454-3.038391,1.320007-6.439697,1.296021-9.688354,1.173157-5.462402-.036499-10.849915-1.231689-16.317078-1.169312-2.281921,0-4.785645.264038-6.578918,1.819214-1.860535,1.612732-2.572327,4.112549-2.595886,6.519348-.003357.343628.007385.685425.030762,1.0224.510742,6.312012,2.849304,12.330261,3.201599,18.664307.035522.416504.056641.837463.056641,1.258545.000061.497803-.034424.994873-.104065,1.485779,1.883972,2.304443,4.119995,4.307495,6.622437,5.936584.062073-.418884.102112-.841309.098938-1.265869.275513-6.818848-2.788818-13.216309-2.930908-19.996765Z" />
    <path class="cls-2"
      d="m80.337585,3.633606c.238281-.018005.474976-.053467.712097-.085083-4.110352-2.260132-8.82959-3.548523-13.849731-3.548523h-4.564758c5.598694,2.244507,11.582397,4.281616,17.702393,3.633606Z" />
    <path class="cls-2"
      d="m21.838074,74.6026c.000122-.000305.000366-.000549.000488-.000854.000183-.000305.000244-.000732.000427-.001038,1.02533-2.0448,2.995239-3.470398,5.107239-4.243225,2.066833-.777588,4.307495-.883179,6.494385-.866882,5.030396-.086426,10.011841.863037,15.040344.827515,2.836792-.042236,5.799316-.280334,8.350037-1.633911,1.983154-1.052795,3.39386-2.935913,4.060364-5.055908.399536-1.272156.531067-2.629578.357605-3.944092-.343689-3.312012-1.636841-6.422424-3.049927-9.405151-3.246765-6.814087-8.035217-12.791992-10.961304-19.771179-1.307495-3.155518-2.304016-6.563538-1.960327-10.012817.108643-1.243958.459534-2.451538,1.004578-3.56604,1.198303-2.451416,3.336548-4.452271,5.905518-5.397461,3.427185-1.276001,7.135071-.809265,10.63446.002686.499878.115967.995605.239014,1.485535.36499,5.587219,1.454407,11.013123,3.489624,16.252808,5.903992,4.802124,2.165344,9.727051,4.148193,14.876465,5.317688-.43396-2.167542-1.116089-4.244263-2.007202-6.206604-.21051.012085-.420715.039124-.631409.043213-3.212891.062439-6.439941-.771118-9.511475-1.6474-8.05249-2.368347-15.611511-6.09314-23.553589-8.769592-3.01825-.946594-6.143982-1.764526-9.33313-1.649292-1.528748.049438-3.059509.366272-4.481628.94165-1.422119.575439-2.735596,1.409363-3.830017,2.493225h.000916c-2.259827,2.18689-3.481873,5.342407-3.40509,8.474915.095032,2.887634,1.002197,5.675476,2.080322,8.332764,3.18335,7.729919,8.362549,14.42688,11.690857,22.084839,1.393921,3.265869,2.339539,6.931152,1.502441,10.46875-.838135,3.153625-3.61731,5.514282-6.681641,6.409973-1.781433.509766-3.608704.655701-5.444885.640747-.252686-.002014-.505798-.013367-.758667-.020996-.206665-.006226-.413208-.007812-.619934-.017151-.378479-.017029-.756775-.040833-1.134949-.06543-.080688-.005249-.161438-.008423-.242065-.013916-.918091-.0625-1.833801-.139771-2.742493-.206482-.541992-.021301-1.083374-.058777-1.624939-.090881-1.052063-.062378-2.103821-.130493-3.155151-.205444-.483765-.034485-.967712-.062683-1.451538-.094116-1.45343-.094299-2.907715-.158508-4.364014-.159363-.207886-.000122-.415283-.012817-.623291-.009888-2.562134.055664-5.272095.228577-7.518372,1.591675-2.621765,1.62915-3.671997,4.878723-3.574097,7.833618.274536,5.851196,2.407654,11.430725,2.743713,17.275208.09375.935425.101746,1.880676.026245,2.819031,2.017151.92749,4.157166,1.631714,6.392517,2.074036-.454956-4.806702-1.768982-9.493591-2.12854-14.314514-.062378-2.190735-.177612-4.495728.78241-6.530884Z" />
    <path class="cls-2"
      d="m33.911194,81.390381c.250183-.268982.520752-.521973.812927-.756104,2.462402-1.966064,5.76001-2.294434,8.800354-2.316467,6.504944-.19104,12.959961,1.226868,19.466858.746887,2.3125-.248962,4.619995-1.303101,6.265991-2.967712.987244-.998962,1.736328-2.217651,2.105225-3.614075,1.140442-4.26239-.201599-8.695679-1.953613-12.593262-3.38208-7.293152-8.172485-13.828796-11.532471-21.132507-1.601318-3.583679-2.771545-7.624329-1.878723-11.55072.399048-1.837646,1.415405-3.485413,2.796265-4.736938.828064-.751099,1.787231-1.359497,2.823242-1.780823l.000305-.00061c1.872009-.811218,3.864014-1.069702,5.865662-.997925,2.001892.071716,4.013428.473694,5.924133.983521,7.893738,2.143616,15.308472,5.690735,22.592651,9.349976v-1.223572c0-.955811-.049194-1.900085-.140259-2.832031-3.768066-1.198303-7.390869-2.800171-11.06488-4.250854-7.63678-3.214111-15.2323-7.240356-23.665955-7.715515-.42218-.039917-.846375-.056335-1.270142-.049805-2.967773.046204-5.91626,1.218323-8.03125,3.315735v-.000854c-.000305.000305-.000671.000549-.000977.000854-.773804.735291-1.422424,1.599304-1.921875,2.542297-.831665,1.571594-1.249207,3.362-1.142456,5.141541.156494,2.803162,1.217285,5.441223,2.239685,8.020752,2.889587,7.091553,7.731812,13.142395,11.027527,20.025635,1.490906,3.054688,2.766724,6.297607,2.995178,9.721924.071411,1.600525.016296,3.273865-.573242,4.778687-.08429.215515-.179504.427673-.286926.635681-1.246033,2.473938-3.736267,4.171204-6.406067,4.76355-2.56604.578857-5.227173.525085-7.836487.334045-5.070679-.137268-10.140442-.861084-15.21405-.478088-2.632324.238098-5.387512.905334-7.398743,2.719727-.948914.876953-1.60907,1.979553-2.039795,3.177124-.430542,1.197998-.631409,2.490906-.661621,3.748291.148499,4.547424,1.337158,8.974182,1.761963,13.491577.789307.066101,1.585632.107605,2.391724.108704h3.071106c-.127686-2.507812-.529785-5.003174-.508667-7.519653.088257-2.537415.836182-5.207153,2.587402-7.088989Z" />
    <path class="cls-2"
      d="m41.337585,95.999023c.583679-4.150024,3.959961-7.713562,8.107178-8.412476,7.324829-1.485107,14.589111,1.259521,21.919678,1.144348,1.798096-.065308,3.678711-.143982,5.305908-1.000305,1.1203-.580322,2.080383-1.412537,2.845154-2.401367,1.22229-1.580933,1.932434-3.562561,2.01416-5.554749.003479-.084717.019287-.168823.020386-.25354-.002991-3.484558-.777649-6.928772-1.95166-10.194519-2.384644-6.54718-6.153625-12.450256-9.309143-18.630737-2.05249-3.85437-3.948486-8.007324-3.935974-12.463623,0-.000122.000061-.000183.000061-.000305,0-.000244-.000061-.000427-.000061-.000671.081604-3.510742,2.402832-6.727722,5.505554-8.258911l.000061.000977c.970215-.504028,2.004883-.819275,3.067505-.990417,1.770996-.285217,3.619446-.170105,5.375671.138916,4.831665.964294,9.443604,2.774597,13.831238,4.993591.626831.316956,1.249084.642334,1.866699.974731v-2.997131c-4.45636-2.26178-8.913635-4.550415-13.585938-6.343689-2.987549-1.116455-6.021118-2.198425-9.196838-2.618896-.349548-.050049-.701233-.090454-1.054138-.120728-2.470337-.211853-5.001465.074219-7.29303,1.045227-1.420654.61792-2.699219,1.604431-3.623596,2.8479-.554382.746094-.981262,1.584595-1.234985,2.491638-1.167358,3.61438-.231323,7.492798,1.149109,10.907471,2.294434,5.488342,5.65155,10.429443,8.555542,15.597168,2.347229,4.156799,4.440002,8.533447,5.406738,13.235474.478088,2.524841.487671,5.219543-.467529,7.638733-.4776,1.221619-1.252136,2.308838-2.219238,3.187012-.967285.878601-2.127258,1.548096-3.375671,1.933655-2.716797.859192-5.615967.674866-8.411499.40033-5.532471-.521301-11.100464-1.106934-16.660767-.650879-2.131775.138-4.197632,1.027039-5.791687,2.439697-.955994.847412-1.742371,1.883179-2.271362,3.058167-1.318115,2.758118-1.127991,5.895386-.902405,8.858887h6.31488c.000061-.000305.000122-.000671.000183-.000977h-.000183Z" />
    <path class="cls-2"
      d="m79.838379,32.257935c-1.807678.122925-3.694092.367676-5.258911,1.351685l-.000916.002869c-1.565918.953064-2.757751,2.419312-3.47345,4.094421-.715332,1.675293-.954529,3.559143-.615234,5.347229.986938,7.50238,5.590088,13.742371,8.68512,20.457581,2.731201,5.853088,5.719727,11.949097,5.601624,18.566406.015503,1.350525-.195557,2.73584-.633606,4.040039-.72937,2.173523-2.089233,4.121948-4.082886,5.308411-1.588806.966736-3.516479,1.137573-5.335693,1.075195-6.686401-.40033-13.264282-2.233948-19.993896-1.941101-3.65686.185181-7.454468,2.000916-9.067993,5.439331h21.537415c9.27832,0,17.529724-4.3974,22.797791-11.215942-.311951-2.43573-.915222-4.842407-1.656677-7.174744-2.380798-7.223022-6.187195-13.859497-8.865601-20.963501-.9552-2.536316-1.780762-5.152344-2.057251-7.859558-.144958-1.776001-.014404-3.64032.784302-5.260803.248657-.521973.565186-1.006409.913269-1.467041,1.437866-1.903503,3.638367-3.235107,6.020813-3.489441,3.748535-.265869,7.424988.861877,10.863403,2.250854v-3.539124c-4.950745-2.736023-10.375671-5.233948-16.161621-5.022766Z" />
    <path class="cls-2"
      d="m84.647034,43.731384c-.227966.157654-.44696.327881-.657288.508057-.007446.006409-.015808.011597-.023254.018005-.178528.154053-.345154.321594-.508789.49176-.035339.036743-.075256.068665-.109863.106201-.194763.211121-.377625.434082-.546936.668762-1.156799,1.639709-1.679993,3.679688-1.643494,5.675537-.046082,2.729309.784302,5.369263,1.673279,7.918091,2.726379,7.740479,6.823669,14.97406,8.851196,22.963196.016907.067871.031433.136902.048157.204895.695923-1.128845,1.313354-2.310303,1.85083-3.535217-1.099976-3.244507-2.291138-6.460449-3.398499-9.700745-1.085754-3.244751-2.088928-6.571167-2.244507-10.010864-.047974-1.839355-.043152-3.78241.838135-5.450867.000183-.000366.000366-.00061.000549-.000977h-.000549c1.334351-2.694702,4.231628-4.459167,7.223999-4.533081v-5.831055c-2.349121-.822754-4.867249-1.315186-7.360352-1.017639-.848816.117371-1.691467.349365-2.484802.692505-.523132.226379-1.024292.501709-1.492065.823669-.005127.00354-.010681.006226-.015747.009766Z" />
    <path class="cls-2"
      d="m91.821106,58.822083c-.873596,3.395569-.098877,6.916809.750732,10.233643.607544,2.352539,1.314514,4.675537,2.035339,6.994568.900757-2.789368,1.392822-5.761963,1.392822-8.850281v-13.609924c-2.050598,1.046448-3.650879,2.976013-4.178894,5.231995Z" />
    <path class="cls-2"
      d="m0,63.897644v3.302368c0,4.422058,1.000549,8.610596,2.783203,12.355652-.039612-.839966-.122375-1.679443-.205627-2.507935-.542419-4.440002-1.730896-8.764832-2.577576-13.150085Z" />
    <path class="cls-4"
      d="m7.286377,25.960327c1.595154-.493042,2.908752-1.638794,3.818115-3.020508.129944-.197388.251587-.399597.364624-.605408,1.162537-2.11969,1.598389-4.574402,1.567688-6.972473.069214-3.369568-.387878-6.699158-.936829-10.015259-.717529.512024-1.410339,1.055725-2.076904,1.629761.050049.820129.084778,1.641113.095276,2.463257.034424,2.42926-.05896,4.934326-.844971,7.248108-.112305.330566-.238708.657166-.38092.979126-.816956,1.927673-2.407654,3.574036-4.414062,4.247986-1.196777.382996-2.472534.475342-3.720276.334167-.281921,1.210327-.493469,2.447327-.617249,3.710815,2.346069.501526,4.818787.711121,7.145508.000427Z" />
    <path class="cls-4"
      d="m18.196777,27.678772c-.64801,2.334717-2.496033,4.216309-4.708801,5.133118-1.2005.524963-2.497742.73761-3.800598.741943-.78186.002625-1.565735-.069824-2.331909-.194763-2.500488-.400269-4.934692-1.129761-7.355469-1.859192v3.062378c4.006836,1.411072,8.170898,2.615723,12.456909,2.575378,1.675232-.076782,3.390747-.301453,4.912354-1.053101,2.216614-1.128967,3.808289-3.297607,4.437134-5.681335.432007-1.617554.408936-3.309082.338867-4.967957-.34082-4.122253-1.788513-8.027527-2.90686-11.977905-1.03772-3.538208-1.939636-7.116821-2.66687-10.731873-.591125.277832-1.170959.57489-1.739258.89093,1.083984,4.973389,2.398621,9.89563,3.386597,14.889526.57312,3.012512.913879,6.194885-.022095,9.172852Z" />
    <path class="cls-4"
      d="m32.184937,34.442932c-1.449585-7.442932-5.376953-14.049622-7.77887-21.177612-1.315613-4.016113-2.437195-8.170166-2.558411-12.41449-.787231.195312-1.559814.426086-2.320007.684753.064026.585571.139954,1.168396.231506,1.74762.104309.660095.230469,1.315063.366455,1.967773,1.42572,6.844055,4.468384,13.308899,6.636292,19.942322.25354.789185.510071,1.590637.753235,2.398499.039795.132202.082031.262817.12085.395447.827759,2.828064,1.413513,5.751099.817444,8.67041-.627869,3.177551-3.328308,5.720642-6.443542,6.443481-3.302368.799683-6.721924.252502-10.0224-.27356-4.026917-.600952-7.950989-1.747925-11.987488-2.297119v3.673645c1.658569-.174377,3.325745.067322,4.962219.326477,5.562256.982117,11.107178,2.444153,16.797119,2.302063,2.868469-.002869,6.033569-.567322,8.078369-2.753235,1.812805-1.890564,2.615417-4.49054,2.611938-7.07843-.00116-.862976-.091858-1.724548-.264709-2.558044Z" />
    <path class="cls-4"
      d="m6.598999,83.92511c-.000061-.420715-.021118-.841309-.056641-1.257568-.352295-6.335022-2.690857-12.352295-3.201599-18.664307-.023438-.337341-.034119-.679382-.030762-1.023376.02356-2.406799.735352-4.906616,2.595886-6.519348,1.793274-1.555176,4.296997-1.819214,6.578918-1.819214,5.467163-.062378,10.854675,1.132812,16.317078,1.169312,3.248657.122864,6.649963.146851,9.688354-1.173157,1.791199-.807068,3.113892-2.323792,3.913025-4.090454.396851-.877441.648254-1.817139.780029-2.761536.027405-.196167.065369-.391907.080994-.588013.019836-.298096.027893-.595825.025391-.893066-.017517-2.079773-.553223-4.134216-1.22345-6.093811-1.876831-5.264648-4.756836-10.079041-7.219238-15.073914-2.355835-4.742371-4.439026-9.741089-4.989075-15.054688-.014954-.292969-.024902-.587585-.036072-.881836-.022522-.594055-.036682-1.188965-.020752-1.783142.000305-.00946-.000305-.01886-.000061-.02832.025452-.897827.113037-1.79187.31604-2.670227.352356-1.735718,1.238403-3.312012,2.289612-4.718445h-3.606689c-.353088,0-.702759.013977-1.052734.026611-1.300293,3.357422-1.171875,7.075256-.489014,10.556458.442749,2.20575,1.12384,4.333557,1.93042,6.417969,1.244995,3.217529,2.785583,6.332581,4.213623,9.471069.114197.250916.23114.501282.343628.752563,2.346252,5.06781,5.111023,10.149109,5.58429,15.817932.430115,4.511963-3.200623,8.896301-7.657898,9.496277-4.965149.652832-9.94751-.185242-14.880005-.729553-4.054077-.504028-8.251221-1.390076-12.278381-.228516-2.214722.60675-3.771851,2.563232-4.513916,4.656006v7.660828c.84668,4.385254,2.035156,8.710083,2.577576,13.150085.083252.828491.166016,1.667969.205627,2.507935,1.002075,2.105042,2.251587,4.069214,3.711731,5.855225.069641-.490906.104126-.987976.104065-1.485779Z" />
    <path class="cls-4"
      d="m85.650635,6.693787c-1.423889-1.189819-2.963623-2.244934-4.600952-3.145264-.237122.031616-.473816.067078-.712097.085083-6.119995.64801-12.103699-1.389099-17.702393-3.633606h-5.131042c5.365723,2.310425,10.788086,4.549683,16.434998,6.082581,3.796082,1.00592,7.844666,1.496338,11.711487.611206Z" />
    <path class="cls-4"
      d="m30.101501,64.023682c.483826.031433.967773.059631,1.451538.094116,1.051392.075012,2.103149.143066,3.155151.205444.541565.032104,1.082947.06958,1.624939.090881.908691.066711,1.824402.143982,2.742493.206482.080627.005493.161438.008728.242065.013916.378174.024597.75647.048401,1.134949.06543.206726.009277.413208.010925.619934.017151.252869.007629.505981.018982.758667.020996,1.835632.014832,3.662476-.131104,5.44397-.640808,3.064331-.896606,5.843506-3.256287,6.68158-6.409912.837097-3.537598-.108459-7.202881-1.50238-10.468811-3.327393-7.657898-8.506592-14.354858-11.690918-22.084778-1.079041-2.657288-1.986206-5.445129-2.080322-8.332825-.076782-3.132446,1.14624-6.287964,3.405151-8.474854,1.094421-1.083862,2.407898-1.917786,3.830017-2.493225,1.422119-.575378,2.952881-.892212,4.481628-.94165,3.189148-.115234,6.315857.701782,9.33313,1.649292,7.942078,2.676453,15.501099,6.401245,23.553589,8.769592,3.071533.876282,6.298584,1.709839,9.511475,1.6474.210693-.004089.420837-.031189.631348-.043213-.577393-1.271484-1.243774-2.49292-1.992554-3.657715-.555054.104248-1.115295.177429-1.67218.224731-3.34082.216003-6.626892-.626892-9.806396-1.550415-2.888367-.811951-5.69574-1.853699-8.477905-2.965942-4.314514-1.724854-8.569031-3.617981-12.967102-5.101074-1.550964-.52301-3.118958-.997437-4.714966-1.391846-2.421143-.57312-4.91333-1.126099-7.416016-.820801-3.157471.2995-6.357117,1.679993-8.291504,4.271973v-.000977c-2.554565,3.306274-3.408997,7.818298-2.316467,11.843567,1.291199,5.40094,3.931152,10.342041,6.669067,15.127686,2.582458,4.545593,5.38562,9.046997,6.936035,14.0755.68158,2.373108,1.16449,4.897888.744019,7.360291-.780518,3.717163-4.291199,6.371521-7.927734,6.931213-6.899475.861145-13.806702-.345581-20.687988-.775696-2.767639-.065247-5.719666.294739-8.028442,1.953613-1.110718.868835-2.123535,1.946899-2.627563,3.288025-.529907,1.385254-.606689,2.889587-.566406,4.358398.14209,6.780457,3.206421,13.177917,2.930908,19.996765.003174.424561-.036865.846985-.098938,1.265869,1.168823.760925,2.39563,1.438538,3.673401,2.026062.075439-.938293.067444-1.883362-.026306-2.818665-.335999-5.844482-2.46814-11.42395-2.743652-17.275146-.097961-2.954895.951355-6.204529,3.574036-7.833618,2.246399-1.36322,4.957458-1.536011,7.518738-1.591675h.00061c.208008-.00293.415405.009766.623291.009888,1.456482.000854,2.910767.065063,4.364014.159363Z" />
    <path class="cls-4"
      d="m34.707825,72.753601c5.073608-.382996,10.143372.34082,15.21405.478088,2.609314.19104,5.270447.244812,7.836487-.334045,2.6698-.592346,5.160034-2.289612,6.406067-4.76355.107422-.208008.202637-.420166.286926-.635681.588623-1.504639.643677-3.176147.572327-4.775818-.228516-3.424316-1.504333-6.667236-2.995239-9.721924-3.296631-6.883179-8.137939-12.934082-11.027527-20.025574-1.0224-2.579529-2.083191-5.217651-2.239685-8.020813-.107422-1.780457.310669-3.572144,1.143433-5.144409.499451-.942993,1.148071-1.807007,1.921875-2.542297.000305-.000305.000671-.000549.000977-.000854,2.115173-2.097046,5.063599-3.268921,8.03125-3.31488.423767-.006531.847961.009888,1.270142.049805,8.433655.475159,16.029175,4.501404,23.665955,7.715515,3.674011,1.450684,7.296814,3.052551,11.06488,4.250854-.094177-.963806-.236084-1.913391-.422974-2.847046-5.149353-1.168701-10.074402-3.152405-14.876465-5.317749-5.239685-2.414368-10.665588-4.449585-16.252808-5.903992-.489929-.125977-.985657-.249023-1.485535-.36499-3.49939-.811707-7.207275-1.277832-10.63446-.002686l-.000977.001892c-2.568298.945007-4.705994,2.945068-5.904541,5.395569-.545044,1.114502-.895935,2.322083-1.004578,3.56604-.343689,3.44928.652832,6.8573,1.960327,10.012817,2.926086,6.979187,7.714539,12.957092,10.961304,19.771179,1.413086,2.982727,2.706238,6.09314,3.049927,9.405151.173462,1.314514.041931,2.671936-.357605,3.944092-.666016,2.12085-2.076904,4.0047-4.061279,5.0578-2.549805,1.353638-5.513306,1.592651-8.350098,1.633911-5.029419.034546-10.009949-.913879-15.040344-.827515-2.186829-.016296-4.42749.089294-6.494385.866882-2.111694.772705-4.081177,2.19812-5.106689,4.242371-.000122.000305-.000366.000549-.000488.000854-.960022,2.035156-.844788,4.340149-.78241,6.530884.359558,4.820923,1.673584,9.507812,2.12854,14.314514,1.042053.206177,2.105164.351868,3.184204.442261-.424988-4.516418-1.612183-8.9422-1.761719-13.488647.030273-1.258301.231445-2.552307.662598-3.75116.430725-1.197571,1.090881-2.300171,2.039795-3.177124,2.01123-1.814392,4.766418-2.481628,7.398743-2.719727Z" />
    <path class="cls-4"
      d="m60.648926,82.294128c2.795532.274536,5.694702.458862,8.411499-.40033,1.248413-.385559,2.408386-1.055054,3.375671-1.933655.966675-.877991,1.740845-1.964844,2.218262-3.186035.9552-2.419189.945618-5.113953.467529-7.638733-.966736-4.703003-3.059509-9.078735-5.406738-13.235535-2.903992-5.16864-6.261108-10.108765-8.555481-15.597107-1.38147-3.414734-2.317444-7.293091-1.149109-10.907532.253845-.907349.681091-1.746216,1.235901-2.492554.924377-1.243469,2.202942-2.22998,3.623596-2.8479,2.291565-.971008,4.822693-1.25708,7.29303-1.045227.352905.030273.70459.070679,1.054138.120728,3.17572.420471,6.20929,1.502441,9.196838,2.618896,4.672302,1.793274,9.129578,4.080933,13.585938,6.343689v-2.068787c-7.284485-3.659546-14.699524-7.206726-22.593628-9.350403-1.9104-.509766-3.92157-.911743-5.923157-.983521-2.001648-.071777-3.993652.186707-5.865662.997925l-.000305.00061-.00061.001282c-1.035645.421021-1.994629,1.029053-2.822632,1.779541-1.380859,1.251526-2.397217,2.899292-2.796265,4.736938-.892822,3.926392.277405,7.967041,1.878723,11.55072,3.359985,7.303711,8.150391,13.839355,11.532471,21.132507,1.752014,3.897583,3.094055,8.330872,1.953613,12.593262-.368896,1.396423-1.117981,2.615112-2.105225,3.614075-1.646118,1.66571-3.954529,2.720581-6.267883,2.969604-6.506897.47998-12.960999-.936951-19.466919-.746887-3.040283.022095-6.337891.350403-8.800293,2.316467-.291443.233582-.561401.485962-.811035.754211-1.751221,1.881836-2.499146,4.551575-2.587402,7.088989-.021118,2.516479.380981,5.011841.508667,7.519653.000061.000366,0,.00061.000061.000977h3.189148c-.225586-2.962402-.415466-6.100159.902466-8.85791.529236-1.175415,1.315857-2.211548,2.272339-3.059143,1.594055-1.412659,3.659912-2.301697,5.791687-2.439697,5.560303-.456055,11.128296.129578,16.660767.650879Z" />
    <path class="cls-4"
      d="m80.302063,29.121643c-1.756226-.309021-3.604675-.424133-5.375671-.138916-1.062561.171143-2.09729.486389-3.067505.990417h0l-.000061-.000977c-3.102722,1.531189-5.42395,4.748169-5.505554,8.258911,0,.000244.000061.000427.000061.000671-.012268,4.454956,1.883545,8.608765,3.935913,12.463013,3.155518,6.181396,6.925415,12.083496,9.309143,18.630676,1.174072,3.26593,1.948792,6.710449,1.95166,10.195251v.000244c-.001099.084717-.016907.168823-.020386.25354-.08136,1.992249-.791443,3.973877-2.01416,5.554749-.764771.988831-1.724854,1.821045-2.845154,2.401367-1.627197.856323-3.507812.934998-5.305908,1.000305-7.330566.115173-14.594849-2.629456-21.919678-1.144348-4.147217.698914-7.523499,4.262451-8.107178,8.412476h4.324768c1.612793-3.439636,5.41156-5.255981,9.069153-5.441223,6.729614-.292847,13.307495,1.540771,19.993896,1.941101,1.819214.062378,3.746887-.108521,5.335693-1.075195,1.992737-1.185913,3.352295-3.133179,4.081909-5.305542.438049-1.304199.649109-2.689514.633606-4.040039.118103-6.61731-2.870422-12.713318-5.601624-18.566406-3.095032-6.71521-7.698181-12.9552-8.68512-20.457581-.339294-1.788086-.100098-3.671936.615234-5.347229.715637-1.676025,1.907837-3.143311,3.474365-4.09729,1.564819-.984009,3.451233-1.22876,5.258911-1.351685,5.78595-.211182,11.210876,2.286743,16.161621,5.022766v-2.190735c-.617615-.332397-1.239868-.657776-1.866699-.974731-4.387634-2.218994-8.999573-4.029297-13.831238-4.993591Z" />
    <polygon class="cls-4"
      points="78.203491 43.524536 78.204041 43.523499 78.204468 43.522583 78.203491 43.524536" />
    <path class="cls-4"
      d="m85.136597,38.56897c-2.382446.254333-4.582947,1.585938-6.020813,3.489441-.347534.460083-.663574.943848-.911743,1.465088-.79834,1.6203-.92981,3.484253-.783875,5.259888.276428,2.707214,1.102051,5.323181,2.057251,7.859497,2.678406,7.104004,6.484802,13.741455,8.865601,20.963562.741455,2.332764,1.344971,4.739258,1.657043,7.174683.618103-.800171,1.197388-1.631409,1.72998-2.495239-.016724-.067993-.03125-.137024-.048157-.204895-2.027527-7.989136-6.124817-15.222717-8.851196-22.963196-.888977-2.548828-1.71936-5.188782-1.673279-7.918091-.036499-1.99585.486694-4.035828,1.643494-5.675537.169312-.23468.352173-.457642.546936-.668762.034607-.037537.074524-.069397.109863-.106201.163635-.170166.330261-.337708.508789-.49176.007385-.00647.015808-.011597.023254-.018005.210327-.180176.429321-.350403.657288-.508057.005066-.00354.010681-.006287.015747-.009766.467773-.32196.968933-.59729,1.492065-.823669.79364-.343384,1.636719-.575684,2.485779-.69342,2.492798-.297546,5.010559.194824,7.359375,1.017273v-2.401978c-3.438416-1.388977-7.114868-2.516724-10.863403-2.250854Z" />
    <path class="cls-4"
      d="m88.776001,53.587219h.000916c-.881287,1.668457-.886047,3.610596-.838074,5.450867.154602,3.439697,1.157776,6.766113,2.244507,10.010925,1.1073,3.240112,2.298401,6.455688,3.398315,9.699951.38501-.877808.728088-1.777771,1.025513-2.698669-.720825-2.319031-1.427795-4.642029-2.035339-6.994568-.849609-3.316833-1.624329-6.838074-.750732-10.233643.528015-2.255981,2.127319-4.185547,4.178894-5.231995v-4.53595c-2.992371.073914-5.889648,1.838379-7.223999,4.533081Z" />
  </g>
  <path id="Z" class="cls-1"
    d="m24.865001,76.799997v-11.243998l24.911998-33.011995h-23.627999v-13.343998h44.975994v11.243998l-24.996,33.012h24.264v13.344002s-45.527992,0-45.527992-.000009Z" />
</svg>