<?xml version="1.0" encoding="UTF-8"?>
<svg id="Logo_Circle" xmlns="http://www.w3.org/2000/svg"
  viewBox="0 0 1000 1000">
  <defs>
    <style>
      .cls-1 {
      fill: #ffb5a0;
      }

      .cls-2 {
      fill: #ff5722;
      }

      .cls-3 {
      fill: #2c1c17;
      }
    </style>
  </defs>
  <circle id="Background" class="cls-3" cx="500" cy="500" r="499.99" />
  <g id="Pattern">
    <path class="cls-2"
      d="m140.516663,341.783325c23.049988-9.549988,42.299988-29.149963,49.049988-53.466675,9.75-31.016663,6.200012-64.166626.233337-95.549988-4.757324-24.040894-10.272461-47.915466-15.942688-71.756287-13.303223,11.458618-25.994385,23.607117-38.022461,36.38739-.011353.872925-.016785,1.745422-.034851,2.618896.31665,24.983337-4.216675,50.549988-16.333313,72.633301-9.416687,17.150024-24.583313,31.900024-43.56665,37.766724-7.340881,2.242371-14.823364,3.601196-22.366577,4.268982-10.005066,19.786255-18.733032,40.327087-26.07666,61.515625,16.206482,4.563293,32.552063,8.622986,49.176575,11.282043,21.283325,3.466675,43.866638,3.049988,63.883301-5.700012Z" />
    <path class="cls-2"
      d="m229.283325,448.983337c32.450012-7.533325,60.583313-34.016663,67.116699-67.116699,8.283325-40.549988-5.333374-81.166626-17.616699-119.416626-19.11615-58.474854-44.773743-115.681458-61.21814-175.086853-9.060486,6.213501-17.910034,12.712097-26.527161,19.493469,2.992004,11.144958,6.115601,22.254578,9.362,33.326721,11.649963,41.149963,26.733337,81.833313,30.283325,124.766663.733337,17.283325.966675,34.899963-3.533386,51.75-6.549988,24.833313-23.133301,47.416626-46.216614,59.183289-15.850037,7.833374-33.716675,10.166687-51.166687,10.966675-38.226074.35675-75.522644-8.793091-111.651367-20.656799-5.138,18.543823-9.238953,37.518372-12.226685,56.861206,39.984558,5.980164,79.006165,17.105347,118.994751,23.078918,34.383301,5.483337,70,11.183411,104.399963,2.850037Z" />
    <path class="cls-2"
      d="m47.016663,537.266663c41.950012-12.099976,85.666687-2.866638,127.900024,2.383362,51.383301,5.666626,103.283325,14.399963,155,7.599976,46.433289-6.25,84.25-51.916626,79.766663-98.916687-4.93335-59.049988-33.733337-111.983337-58.166687-164.766663-25.31665-56.56665-55.283325-112.06665-67.583313-173.349976-3.768555-19.203674-5.915649-39.100281-5.092529-58.763672-14.586914,7.205933-28.772034,15.101074-42.511963,23.645447,4.808716,21.338135,11.125854,42.38562,17.90448,63.0849,25.016663,74.25,65.93335,143.06665,81.033325,220.599976,7.200012,34.716675.733337,74.116638-24.450012,100.383362-21.299988,22.766663-54.266663,28.649963-84.149963,28.683289-59.266663,1.483337-117.033325-13.75-174.966675-23.983276-16.538086-2.618958-33.373962-5.05304-50.142883-3.539734-1.027588,13.089722-1.557129,26.319397-1.557129,39.673035,0,24.964294,1.838867,49.498291,5.371216,73.481201,8.831116-16.808411,22.998779-31.108276,41.645447-36.214539Z" />
    <path class="cls-2"
      d="m113.033325,684.650024c5.25-13.966675,15.799988-25.200012,27.366699-34.250061,24.049988-17.283325,54.799988-21.033325,83.633301-20.349976,71.68335,4.483337,143.633362,17.050049,215.5,8.083374,37.883362-5.833374,74.450012-33.483337,82.583313-72.200012,4.383362-25.650024-.649963-51.950012-7.75-76.666687-16.149963-52.383301-45.349976-99.266663-72.25-146.616699-28.516602-49.849976-56.016602-101.31665-69.466614-157.583313-11.383362-41.93335-2.483337-88.933289,24.133301-123.366638,20.150024-27,53.483337-41.383362,86.366699-44.5,26.06665-3.18335,52.033264,2.583313,77.249939,8.549988,92.655212,22.893188,176.570374,70.748596,268.023926,97.238037C740.572632,46.394531,625.706055,0,500,0c-64.165894,0-125.505493,12.093323-181.872742,34.114502-1.857971,4.87677-3.366455,9.886108-4.410583,15.035522-4.233337,18.299988-3.650024,37.25-2.700012,55.866638,5.733337,55.349976,27.43335,107.416687,51.966675,156.81665,25.649963,52.033386,55.649963,102.18335,75.200012,157.016663,7.983337,23.333374,14.133362,47.950012,12.483337,72.783386-2.516663,31.683289-19.883362,64.049988-49.733337,77.5-31.650024,13.75-67.083374,13.499939-100.916687,12.216614-56.900024-.383362-113.016663-12.833313-169.966675-12.183289-23.766663,0-49.849976,2.749939-68.533325,18.949951-22.150024,19.200073-28.666687,50.466675-26.716675,78.566711.638733,7.898926,1.557983,15.752686,2.677673,23.574158,20.855103,50.644714,49.784546,97.111755,85.187927,137.798584-7.385986-32.366455-14.833679-64.742737-15.532227-98.006104-.416687-15.299988.383301-30.966614,5.899963-45.399963Z" />
    <path class="cls-2"
      d="m227.483337,777.083313c10.68335-21.299988,31.200012-36.149963,53.200012-44.199951,21.533325-8.100037,44.866638-9.200073,67.649963-9.033386,52.400024-.900024,104.283386,8.983398,156.666687,8.616699,29.550049-.43335,60.416687-2.916687,86.983337-17.016724,33.06665-17.549988,50.850037-57.249939,46.033325-93.766602-3.583313-34.5-17.049988-66.900024-31.766663-97.966675-33.81665-70.983337-83.700012-133.25-114.18335-205.950012-13.616638-32.866638-24-68.366638-20.416687-104.299988,3.616699-41.450012,33.050049-79.033325,71.966736-93.350037,40.799988-15.183289,85.416687-6.666626,126.25,3.833374,58.199951,15.149963,114.716614,36.349976,169.299988,61.5,23.712891,10.694031,47.713074,20.96637,72.108704,30.125732-13.86261-20.007385-29.149719-38.952271-45.710815-56.692627-83.133789-24.692017-161.274048-63.088684-243.3479-90.749756-31.43335-9.866699-64-18.383362-97.216675-17.18335-31.849976,1.033325-63.783325,13.200012-86.583374,35.783325-23.533325,22.783325-36.266663,55.650024-35.466614,88.283325.983337,30.083313,10.43335,59.116638,21.666687,86.799988,33.166687,80.516663,87.116638,150.283325,121.783325,230.049988,14.516602,34.016663,24.366638,72.200012,15.650024,109.049988-8.733398,32.850037-37.683411,57.433411-69.600037,66.766663-37.116638,10.616699-76.133362,6.083374-113.983337,3.300049-38.983337-1.533325-77.833313-6.383301-116.866638-5.833374-26.68335.583374-54.916687,2.383362-78.316711,16.583374-27.31665,16.966675-38.25,50.81665-37.233337,81.599976,1.69989,36.141479,10.203308,71.286743,17.573792,106.603271,20.725159,18.856018,43.04071,35.994324,66.722351,51.189514-4.594971-25.206299-9.107666-50.425293-11.012756-76.009399-.650024-22.816711-1.850037-46.833374,8.149963-68.033386Z" />
    <path class="cls-2"
      d="m361.700012,839.950012c25.650024-20.483337,60-23.900024,91.666626-24.133362,67.766663-1.983337,135,12.783325,202.783386,7.783325,38.549988-4.149963,76.966614-29.783325,87.216614-68.583313,11.883362-44.400024-2.099976-90.583313-20.349976-131.18335-35.233276-75.966675-85.133301-144.049988-120.133301-220.133301-16.68335-37.333313-28.866699-79.416687-19.566711-120.316711,6.650024-30.616638,29.75-56.183289,58.533325-67.883301,39.000061-16.900024,83.000061-10.766663,122.800049-.149963,65.634583,17.825378,128.082458,44.964966,189.202454,74.574524-7.106812-15.327881-14.964905-30.236023-23.531433-44.675232-15.682129-6.346497-31.313782-12.824219-47.037781-19.032654-79.549927-33.483337-158.666626-75.416687-246.516602-80.366699-35.200012-3.333313-71.716675,9.050049-96.899963,34.016663-21.500061,20.43335-33.716675,50.400024-31.93335,80.066711,1.633301,29.199951,12.683289,56.683289,23.333313,83.549988,30.100037,73.866638,80.533325,136.900024,114.866638,208.599976,15.533386,31.81665,28.816711,65.599976,31.200012,101.266724.850037,19.049988-.016602,39.083252-8.949951,56.366577-12.983398,25.766724-38.916687,43.450012-66.733398,49.616699-26.733276,6.033325-54.449951,5.466675-81.633301,3.483337-52.81665-1.43335-105.633301-8.966675-158.483337-4.983276-27.416626,2.483276-56.116638,9.433289-77.06665,28.333313-19.783325,18.283325-27.516663,45.966614-28.150024,72.166626.928406,28.297363,5.725769,56.144104,10.382324,84.01178,20.071838,10.608154,40.954407,19.886536,62.527771,27.725769-1.515259-16.11261-3.060608-32.225403-2.926758-48.420898,1.050049-30.199951,11.06665-62.200012,35.400024-81.699951Z" />
    <path class="cls-2"
      d="m829.149963,722.150024c-24.833313-68.200012-64.099976-129.68335-96.966614-194.066711-21.383301-40.149963-41.133362-83.416687-41-129.833313.849976-36.56665,25.033325-70.083374,57.349976-86.033325,26.950012-14,58.68335-14.016663,87.950012-8.866699,49.547302,9.892212,96.878357,28.322449,141.94458,50.946228-3.872559-12.732239-8.231323-25.252563-13.07019-37.531921-34.990723-17.55835-70.30188-34.507263-106.874329-48.547607-31.116699-11.633362-62.716736-22.900024-95.80011-27.283325-29.133301-4.166687-59.666626-1.93335-86.949951,9.633301-23.683289,10.300049-43.566711,30.43335-50.616638,55.633362-12.166687,37.649963-2.416687,78.049988,11.966614,113.616638,23.900024,57.166687,58.866699,108.633362,89.116699,162.466675,24.450012,43.299988,46.25,88.883362,56.31665,137.866638,4.983337,26.300049,5.083313,54.366699-4.866638,79.56665-9.950012,25.450073-32.266663,45.300049-58.266663,53.333374-28.300049,8.950012-58.5,7.033325-87.616699,4.166687-57.633301-5.43335-115.633362-11.533325-173.549988-6.783325-35.533325,2.299988-69.299988,24.633301-84,57.283325-10.964661,22.940613-11.908386,48.39856-10.648315,73.440125,22.025452,6.232971,44.669861,10.990662,67.818359,14.167603,7.868958-41.207825,42.029968-75.938599,83.663269-82.957764,76.299988-15.466614,151.966675,13.116638,228.333374,11.916687,7.830994-.285645,15.809143-.603149,23.682739-1.517334,26.850098-16.997131,51.969177-36.479919,75.034058-58.127747,4.642639-11.547058,7.216492-23.925903,7.383179-36.288208-.033325-36.300049-8.100037-72.18335-20.333374-106.200012Z" />
    <path class="cls-2"
      d="m570.116699,943.31665c-37.892578,1.922913-77.22644,20.651672-94.180786,56.106628,7.974548.37793,15.995972.576721,24.064087.576721,73.699097,0,143.67157-15.949646,206.660645-44.57843-45.344421-6.589722-90.604187-14.10376-136.543945-12.104919Z" />
    <path class="cls-2"
      d="m806.450012,508.18335c-1.516663-18.5-.150024-37.916687,8.166626-54.800049,13.283325-27.899963,41.400024-48.333313,72.216675-51.616638,36.907471-2.614868,73.143616,7.739441,107.247742,21.097046-2.216675-14.314209-5.038147-28.428406-8.441956-42.314209-47.639465-25.264648-99.268127-46.530396-153.989136-44.532837-18.833313,1.283325-38.483276,3.833313-54.783325,14.083313-32.633301,19.866699-49.666626,61.116699-42.599976,98.383362,10.283386,78.150024,58.233337,143.150024,90.466675,213.100037,24.034668,51.504822,49.981873,104.818237,56.713928,161.687683,10.676331-12.585144,20.741211-25.704895,30.148254-39.314636-24.697815-65.939575-58.861633-127.994324-83.712158-193.906433-9.950012-26.416687-18.549988-53.666687-21.43335-81.866638Z" />
    <path class="cls-2"
      d="m923.333313,439.633301c-23.583374,3.266663-46.716675,15.016724-60.833313,34.583374-12.049988,17.083313-17.5,38.333313-17.116638,59.116638-.483337,28.43335,8.166626,55.93335,17.433289,82.483337,17.823608,50.604797,41.271057,99.129333,61.484497,148.822815,6.812744-10.899902,13.211365-22.084656,19.185974-33.526001-1.372559-3.945984-2.73645-7.89447-4.087097-11.846802-11.316711-33.799988-21.766663-68.450012-23.383362-104.283325-.5-19.166687-.449951-39.400024,8.733276-56.783325,13.881226-28.028564,44.001526-46.397888,75.123169-47.211304.078796-3.654053.126892-7.315735.126892-10.988708,0-17.089905-.860229-33.978638-2.534363-50.627319-23.740601-8.038757-49.058228-12.732788-74.132324-9.73938Z" />
    <path class="cls-2"
      d="m956.466675,612.733337c-7.265869,28.23822-3.584778,57.31488,2.697937,85.475769,18.671082-43.194336,31.423767-89.542419,37.240417-138.024902-19.628357,11.249268-34.751038,30.38501-39.938354,52.549133Z" />
    <path class="cls-3"
      d="m119.466675,232.649963c12.116638-22.083313,16.649963-47.649963,16.333313-72.633301.018066-.873474.023499-1.745972.034851-2.618896-32.732178,34.779114-60.536682,74.245667-82.301392,117.287903,7.543213-.667786,15.025696-2.026611,22.366577-4.268982,18.983337-5.866699,34.149963-20.616699,43.56665-37.766724Z" />
    <path class="cls-3"
      d="m129.766663,386.849976c17.450012-.799988,35.31665-3.133301,51.166687-10.966675,23.083313-11.766663,39.666626-34.349976,46.216614-59.183289,4.500061-16.850037,4.266724-34.466675,3.533386-51.75-3.549988-42.93335-18.633362-83.616699-30.283325-124.766663-3.246399-11.072144-6.369995-22.181763-9.362-33.326721-5.833984,4.591125-11.560303,9.312622-17.180725,14.153748,5.670227,23.84082,11.185364,47.715393,15.942688,71.756287,5.966675,31.383362,9.516663,64.533325-.233337,95.549988-6.75,24.316711-26,43.916687-49.049988,53.466675-20.016663,8.75-42.599976,9.166687-63.883301,5.700012-16.624512-2.659058-32.970093-6.71875-49.176575-11.282043-3.417603,9.860901-6.534668,19.861633-9.341492,29.991882,36.128723,11.863708,73.425293,21.01355,111.651367,20.656799Z" />
    <path class="cls-3"
      d="m51.700012,463.866699c57.93335,10.233276,115.700012,25.466614,174.966675,23.983276,29.883301-.033325,62.849976-5.916626,84.149963-28.683289,25.18335-26.266724,31.650024-65.666687,24.450012-100.383362-15.099976-77.533325-56.016663-146.349976-81.033325-220.599976-6.778625-20.69928-13.095764-41.746765-17.90448-63.0849-6.351929,3.950012-12.606079,8.041931-18.763672,12.264709,16.444397,59.405396,42.10199,116.612,61.21814,175.086853,12.283325,38.25,25.900024,78.866638,17.616699,119.416626-6.533386,33.100037-34.666687,59.583374-67.116699,67.116699-34.399963,8.333374-70.016663,2.633301-104.399963-2.850037-39.988586-5.973572-79.010193-17.098755-118.994751-23.078918-1.897095,12.282227-3.34552,24.712341-4.331482,37.272583,16.768921-1.513306,33.604797.920776,50.142883,3.539734Z" />
    <path class="cls-3"
      d="m61.516663,588.116638c18.68335-16.200012,44.766663-18.949951,68.533325-18.949951,56.950012-.650024,113.06665,11.799927,169.966675,12.183289,33.833313,1.283325,69.266663,1.533386,100.916687-12.216614,29.849976-13.450012,47.216675-45.816711,49.733337-77.5,1.650024-24.833374-4.5-49.450012-12.483337-72.783386-19.550049-54.833313-49.550049-104.983276-75.200012-157.016663-24.533325-49.399963-46.233337-101.466675-51.966675-156.81665-.950012-18.616638-1.533325-37.56665,2.700012-55.866638,1.044128-5.149414,2.552612-10.158752,4.410583-15.035522-13.385559,5.22937-26.490906,11.017517-39.286438,17.338501-.82312,19.663391,1.323975,39.559998,5.092529,58.763672,12.299988,61.283325,42.266663,116.783325,67.583313,173.349976,24.43335,52.783325,53.233337,105.716675,58.166687,164.766663,4.483337,47.000061-33.333374,92.666687-79.766663,98.916687-51.716675,6.799988-103.616699-1.93335-155-7.599976-42.233337-5.25-85.950012-14.483337-127.900024-2.383362-18.646667,5.106262-32.814331,19.406128-41.645447,36.214539,5.999023,40.73053,16.905762,79.862976,32.106445,116.776306-1.11969-7.821472-2.03894-15.675232-2.677673-23.574158-1.950012-28.100037,4.56665-59.366638,26.716675-78.566711Z" />
    <path class="cls-3"
      d="m183.283325,681.733337c23.400024-14.200012,51.633362-16,78.316711-16.583374,39.033325-.549927,77.883301,4.300049,116.866638,5.833374,37.849976,2.783325,76.866699,7.31665,113.983337-3.300049,31.916626-9.333252,60.866638-33.916626,69.600037-66.766663,8.716614-36.849976-1.133423-75.033325-15.650024-109.049988-34.666687-79.766663-88.616638-149.533325-121.783325-230.049988-11.233337-27.68335-20.68335-56.716675-21.666687-86.799988-.800049-32.633301,11.933289-65.5,35.466614-88.283325,22.800049-22.583313,54.733398-34.75,86.583374-35.783325,33.216675-1.200012,65.783325,7.31665,97.216675,17.18335,82.073853,27.661072,160.214111,66.057739,243.3479,90.749756-11.75415-12.591187-24.153198-24.571899-37.140686-35.895081-91.453552-26.489441-175.368713-74.344849-268.023926-97.238037-25.216675-5.966675-51.183289-11.733337-77.249939-8.549988-32.883362,3.116638-66.216675,17.5-86.366699,44.5-26.616638,34.43335-35.516663,81.433289-24.133301,123.366638,13.450012,56.266663,40.950012,107.733337,69.466614,157.583313,26.900024,47.350037,56.100037,94.233398,72.25,146.616699,7.100037,24.716675,12.133362,51.016663,7.75,76.666687-8.133301,38.716675-44.699951,66.366638-82.583313,72.200012-71.866638,8.966675-143.81665-3.600037-215.5-8.083374-28.833313-.68335-59.583313,3.06665-83.633301,20.349976-11.566711,9.050049-22.116699,20.283386-27.366699,34.250061-5.516663,14.43335-6.31665,30.099976-5.899963,45.399963.698547,33.263367,8.14624,65.639648,15.532227,98.006104,12.829224,14.743835,26.505432,28.731201,40.958191,41.880493-7.370483-35.316528-15.873901-70.461792-17.573792-106.603271-1.016663-30.783325,9.916687-64.633301,37.233337-81.599976Z" />
    <path class="cls-3"
      d="m284.466675,786.166687c20.950012-18.900024,49.650024-25.850037,77.06665-28.333313,52.850037-3.983398,105.666687,3.549927,158.483337,4.983276,27.18335,1.983337,54.900024,2.549988,81.633301-3.483337,27.816711-6.166687,53.75-23.849976,66.733398-49.616699,8.93335-17.283325,9.799988-37.316589,8.949951-56.366577-2.383301-35.666748-15.666626-69.450073-31.200012-101.266724-34.333313-71.699951-84.766602-134.733337-114.866638-208.599976-10.650024-26.866699-21.700012-54.350037-23.333313-83.549988-1.783325-29.666687,10.433289-59.633362,31.93335-80.066711,25.183289-24.966614,61.699951-37.349976,96.899963-34.016663,87.849976,4.950012,166.966675,46.883362,246.516602,80.366699,15.723999,6.208435,31.355652,12.686157,47.037781,19.032654-6.00769-10.126221-12.359863-20.02417-19.045654-29.673584-24.39563-9.159363-48.395813-19.431702-72.108704-30.125732-54.583374-25.150024-111.100037-46.350037-169.299988-61.5-40.833313-10.5-85.450012-19.016663-126.25-3.833374-38.916687,14.316711-68.350037,51.900024-71.966736,93.350037-3.583313,35.93335,6.800049,71.43335,20.416687,104.299988,30.483337,72.700012,80.366699,134.966675,114.18335,205.950012,14.716675,31.06665,28.18335,63.466675,31.766663,97.966675,4.816711,36.516663-12.966675,76.216614-46.033325,93.766602-26.56665,14.100037-57.433289,16.583374-86.983337,17.016724-52.383301.366699-104.266663-9.516724-156.666687-8.616699-22.783325-.166687-46.116638.93335-67.649963,9.033386-22,8.049988-42.516663,22.899963-53.200012,44.199951-10,21.200012-8.799988,45.216675-8.149963,68.033386,1.90509,25.584106,6.417786,50.803101,11.012756,76.009399,11.78833,7.563965,23.915405,14.64563,36.352844,21.218994-4.656555-27.867676-9.453918-55.714417-10.382324-84.01178.633362-26.200012,8.366699-53.883301,28.150024-72.166626Z" />
    <path class="cls-3"
      d="m374.216675,907.716675c14.700012-32.650024,48.466675-54.983337,84-57.283325,57.916626-4.75,115.916687,1.349976,173.549988,6.783325,29.116699,2.866638,59.31665,4.783325,87.616699-4.166687,26-8.033325,48.31665-27.883301,58.266663-53.333374,9.949951-25.199951,9.849976-53.266602,4.866638-79.56665-10.06665-48.983276-31.866638-94.56665-56.31665-137.866638-30.25-53.833313-65.216675-105.299988-89.116699-162.466675-14.383301-35.56665-24.133301-75.966675-11.966614-113.616638,7.049927-25.200012,26.93335-45.333313,50.616638-55.633362,27.283325-11.56665,57.81665-13.799988,86.949951-9.633301,33.083374,4.383301,64.683411,15.649963,95.80011,27.283325,36.572449,14.040344,71.883606,30.989258,106.874329,48.547607-3.578369-9.080444-7.4198-18.028198-11.505249-26.839722-61.119995-29.609558-123.567871-56.749146-189.202454-74.574524-39.799988-10.616699-83.799988-16.750061-122.800049.149963-28.783325,11.700012-51.883301,37.266663-58.533325,67.883301-9.299988,40.900024,2.883362,82.983398,19.566711,120.316711,35,76.083313,84.900024,144.166626,120.133301,220.133301,18.25,40.600037,32.233337,86.783325,20.349976,131.18335-10.25,38.799988-48.666626,64.43335-87.216614,68.583313-67.783386,5-135.016724-9.766663-202.783386-7.783325-31.666626.233337-66.016602,3.650024-91.666626,24.133362-24.333374,19.499939-34.349976,51.5-35.400024,81.699951-.13385,16.195496,1.411499,32.308289,2.926758,48.420898,11.264526,4.093262,22.716187,7.796021,34.341614,11.085938-1.260071-25.041565-.316345-50.499512,10.648315-73.440125Z" />
    <path class="cls-3"
      d="m734.266663,448.483337c-7.06665-37.266663,9.966675-78.516663,42.599976-98.383362,16.300049-10.25,35.950012-12.799988,54.783325-14.083313,54.721008-1.997559,106.34967,19.268188,153.989136,44.532837-2.16864-8.846802-4.578674-17.59845-7.211182-26.253296-45.066223-22.623779-92.397278-41.054016-141.94458-50.946228-29.266663-5.149963-61-5.133301-87.950012,8.866699-32.31665,15.949951-56.5,49.466675-57.349976,86.033325-.133362,46.416626,19.616699,89.68335,41,129.833313,32.866638,64.383362,72.133301,125.866699,96.966614,194.066711,12.233337,34.016663,20.300049,69.899963,20.333374,106.200012-.166687,12.362305-2.74054,24.74115-7.383179,36.288208,13.882812-13.029846,27.023621-26.840454,39.347107-41.367188-6.732056-56.869446-32.67926-110.182861-56.713928-161.687683-32.233337-69.950012-80.183289-134.950012-90.466675-213.100037Z" />
    <path class="cls-3"
      d="m515.049988,912.366638c-41.633301,7.019165-75.794312,41.749939-83.663269,82.957764,14.65686,2.011536,29.516113,3.386475,44.549194,4.098877,16.954346-35.454956,56.288208-54.183716,94.180786-56.106628,45.939758-1.99884,91.199524,5.515198,136.543945,12.104919,20.94873-9.521301,41.12207-20.448425,60.405457-32.655579-7.873596.914185-15.851746,1.231689-23.682739,1.517334-76.366699,1.199951-152.033386-27.383301-228.333374-11.916687Z" />
    <path class="cls-3"
      d="m845.383362,533.333313c-.383362-20.783325,5.06665-42.033325,17.116638-59.116638,14.116638-19.56665,37.249939-31.316711,60.833313-34.583374,25.074097-2.993408,50.391724,1.700623,74.132324,9.73938-.895691-8.907654-2.027466-17.745544-3.384583-26.508972-34.104126-13.357605-70.340271-23.711914-107.247742-21.097046-30.81665,3.283325-58.93335,23.716675-72.216675,51.616638-8.31665,16.883362-9.683289,36.300049-8.166626,54.800049,2.883362,28.199951,11.483337,55.449951,21.43335,81.866638,24.850525,65.912109,59.014343,127.966858,83.712158,193.906433,4.378723-6.3349,8.616516-12.774597,12.705627-19.316956-20.21344-49.693481-43.660889-98.218018-61.484497-148.822815-9.266663-26.549988-17.916626-54.049988-17.433289-82.483337Z" />
    <path class="cls-3"
      d="m924.749939,558.200012c-9.183228,17.383301-9.233276,37.616638-8.733276,56.783325,1.616699,35.833313,12.06665,70.483337,23.383362,104.283325,1.350647,3.952332,2.714539,7.900818,4.087097,11.846802,5.610901-10.744812,10.842346-21.718689,15.67749-32.904358-6.282715-28.160889-9.963806-57.237549-2.697937-85.475769,5.187317-22.164124,20.309998-41.299866,39.938354-52.549133,1.94043-16.174011,3.109802-32.584534,3.468079-49.195496-31.121643.813416-61.241943,19.182739-75.123169,47.211304Z" />
  </g>
  <path id="Z" class="cls-1"
    d="m258.989972,799.990051v-117.130014l259.550008-343.820034h-246.070026v-139.040004h468.540075v117.129999l-260.390035,343.820003h252.810017v139.049998h-474.440039v-.009949Z" />
</svg>